# xmcd CD database file
#
# Track frame offsets:
#	150
#	16388
#	35281
#	59852
#	75819
#	101576
#	113433
#	129528
#	150043
#	173710
#	187394
#
# Disc length: 2799 seconds
#
# Revision: 0
# Processed by: cddbd v1.5.2PL0 Copyright (c) Steve Scherf et al.
# Submitted via: CDex 1.70beta2
#
DISCID=7e0aed0b
DTITLE=China Moses - Nightintales
DYEAR=2017
DGENRE=Jazz
TTITLE0=Running
TTITLE1=Put it on the line
TTITLE2=Disconnected
TTITLE3=Ticking Boxes
TTITLE4=Whatever
TTITLE5=Watch out
TTITLE6=Nicotine
TTITLE7=Lobby Call
TTITLE8=Hungover
TTITLE9=Blame Jerry
TTITLE10=Breaking Point
EXTD=YEAR: 2017
EXTT0=
EXTT1=
EXTT2=
EXTT3=
EXTT4=
EXTT5=
EXTT6=
EXTT7=
EXTT8=
EXTT9=
EXTT10=
PLAYORDER=
